<?xml version="1.0" encoding="utf-8"?>
<svg xmlns="http://www.w3.org/2000/svg" viewBox="0 0 64 64">
    <path fill="currentColor" d="M50 44H14c-1.1 0-2-.9-2-2s.9-2 2-2h36c1.1 0 2 .9 2 2s-.9 2-2 2ZM50 52H14c-1.1 0-2-.9-2-2s.9-2 2-2h36c1.1 0 2 .9 2 2s-.9 2-2 2Z"/>
    <path fill="var(--icon-color-accent, #ff8700)" d="M 48 16 L 48 32 L 16 32 L 16 16 L 48 16 M 50 12 L 14 12 C 12.9 12 12 12.9 12 14 L 12 34 C 12 35.1 12.9 36 14 36 L 50 36 C 51.1 36 52 35.1 52 34 L 52 14 C 52 12.9 51.1 12 50 12 Z"/>
    <g opacity=".6" transform="matrix(0.832274, 0, 0, 0.832274, 1.205863, 1.970775)" style="">
        <path fill="currentColor" d="M 22.975 34.049 C 22.975 34.738 23.024 35.415 23.121 36.077 L 21.117 36.071 C 21.05 35.476 20.975 34.66 20.975 34.047 C 20.975 25.225 28.153 18.047 36.975 18.047 C 45.797 18.047 52.975 25.225 52.975 34.047 L 52.975 34.049 C 52.975 34.631 52.944 35.501 52.883 36.067 L 50.826 36.077 C 50.922 35.414 50.972 34.737 50.972 34.048 C 50.972 26.316 44.704 20.048 36.972 20.048 C 29.24 20.048 22.972 26.316 22.972 34.048 L 22.975 34.049 Z"/>
        <path fill="currentColor" d="M 52.903 35.769 L 52.821 35.76 L 52.826 35.714 L 52.909 35.723 C 52.907 35.738 52.906 35.754 52.904 35.769 L 52.903 35.769 Z"/>
        <path fill="currentColor" d=""/>
        <path fill="currentColor" d="M 50.68 33.516 C 50.389 34.28 50.099 35.163 49.72 36.072 L 49.182 36.073 C 48.92 34.378 49.454 31.908 46.434 32.743 C 47.386 33.866 46.962 35.149 46.391 36.076 L 30.722 36.091 C 30.408 34.576 30.805 32.897 32.414 31.579 C 34.444 29.835 35.92 29.059 38.134 30.803 C 39.424 31.773 41.084 30.221 42.564 30.609 C 41.824 30.029 42.378 26.925 40.164 29.057 L 39.61 28.477 C 39.242 27.897 38.872 26.925 38.502 28.477 L 38.134 28.671 C 36.474 26.343 35.182 28.283 33.706 29.059 C 33.336 29.251 32.782 29.251 32.596 28.671 C 32.23 27.895 32.596 27.507 33.336 27.507 C 34.26 27.313 34.63 27.117 34.63 25.957 C 34.63 24.985 35.736 24.791 36.476 24.597 C 37.212 24.403 37.952 24.597 38.692 24.403 C 39.244 24.403 39.798 24.207 39.984 23.627 C 39.984 23.433 39.984 23.239 39.798 23.043 C 39.248 22.461 38.876 23.043 38.508 23.431 C 37.584 24.207 36.662 23.625 36.294 23.041 C 35.742 21.877 37.032 21.683 37.586 21.489 C 38.982 21.073 40.478 21.142 41.83 21.683 C 42.384 21.877 43.122 22.265 43.676 22.071 C 43.676 21.877 43.726 21.991 43.91 21.797 C 47.796 23.971 50.56 28.029 51 32.757 C 51 32.757 50.864 32.937 50.68 33.517 L 50.68 33.516 Z"/>
        <path fill="currentColor" d="M 22.904 33.918 C 22.904 30.784 23.928 28.092 25.644 25.692 C 26.024 26.062 26.14 26.542 26.332 27.098 C 26.524 27.464 26.524 27.648 26.524 28.018 C 26.524 28.202 26.332 28.574 26.332 28.754 C 26.142 28.94 26.142 29.31 25.952 29.494 L 25.952 29.678 C 25.952 29.862 25.952 29.862 25.762 30.046 C 25.382 30.6 24.618 31.152 24.238 31.892 C 24.046 32.078 24.046 32.078 24.046 32.258 C 23.856 32.442 23.856 32.442 23.856 32.628 L 23.856 32.996 C 23.476 33.734 23.284 34.472 23.664 34.84 C 23.856 35.026 23.856 35.21 24.044 35.396 C 24.044 35.629 24.12 35.862 24.176 36.096 L 23.067 36.097 C 22.96 35.388 22.905 34.66 22.905 33.918 L 22.904 33.918 Z"/>
        <path fill="currentColor" d="M 30.825 22.42 C 31.405 21.808 31.431 21.708 32.013 20.89 C 30.795 21.318 29.265 22.166 28.167 23.088 L 28.503 23.442 L 30.249 23.442 C 30.249 23.442 30.443 23.442 30.443 23.242 L 30.637 23.036 C 30.637 23.036 30.831 23.036 30.831 22.832 L 31.023 22.628 L 31.217 22.422 C 30.637 22.832 30.637 22.628 30.829 22.422 C 30.829 22.628 30.829 22.628 30.829 22.422 C 30.829 22.628 30.829 22.422 30.829 22.422 L 30.825 22.42 Z"/>
    </g>
</svg>
